{"title":"Zio Ti Prego Basta (2010) (THEMA Film, Oliver Buzz)","uid":6937280,"size":887061013,"categoryP":"porn","categoryS":"movies","magnet":"?xt=urn:btih:f84a562af169158d6088ebcadb97450a013c3570&amp;dn=Zio+Ti+Prego+Basta+%282010%29+%28THEMA+Film%2C+Oliver+Buzz%29&amp;tr=udp%3A%2F%2Ftracker.openbittorrent.com%3A80&amp;tr=udp%3A%2F%2Fopen.demonii.com%3A1337&amp;tr=udp%3A%2F%2Ftracker.coppersurfer.tk%3A6969&amp;tr=udp%3A%2F%2Fexodus.desync.com%3A6969","seeders":1,"leechers":0,"uploader":"PoOoP12","files":3,"time":1325871194,"description":"All sex, Oral, Anal\n-------------------\n\n    Format : AVI\n    Format/Info : Audio Video Interleave\n    File size : 845 MiB\n    Duration : 1h 36mn\n    Overall bit rate : 1 223 Kbps\n    Writing application : MEncoder Sherpya-SVN-r33216-4.2.5\n    Writing library : MPlayer\n  Video #0\n    ID : 0\n    Format : MPEG-4 Visual\n    Format profile : Advanced Simple@L5\n    Format settings, BVOP : Yes\n    Format settings, QPel : No\n    Format settings, GMC : No warppoints\n    Format settings, Matrix : Default (H.263)\n    Muxing mode : Packed bitstream\n    Codec ID : XVID\n    Codec ID/Hint : XviD\n    Duration : 1h 36mn\n    Bit rate : 1 018 Kbps\n    Width : 384 pixels\n    Height : 288 pixels\n    Display aspect ratio : 4:3\n    Frame rate : 25.000 fps\n    Color space : YUV\n    Chroma subsampling : 4:2:0\n    Bit depth : 8 bits\n    Scan type : Progressive\n    Bits/(Pixel*Frame) : 0.368\n    Stream size : 703 MiB (83%)\n    Writing library : XviD 63\n  Audio #1\n    ID : 1\n    Format : MPEG Audio\n    Format version : Version 1\n    Format profile : Layer 3\n    Codec ID : 55\n    Codec ID/Hint : MP3\n    Duration : 1h 36mn\n    Bit rate mode : Constant\n    Bit rate : 192 Kbps\n    Channel(s) : 2 channels\n    Sampling rate : 48.0 KHz\n    Video delay : 40ms\n    Stream size : 133 MiB (16%)\n    Alignment : Aligned on interleaves\n    Interleave, duration : 24 ms (0.60 video frame)\n    Interleave, preload duration : 504 ms\n    Writing library : LAME3.98.4\n\n\nCover\n-----\n &lt;a href=&quot;\nhttp://unhidefreepic.com/?v=1fb42336ba.jpg&quot; rel=&quot;nofollow&quot; target=&quot;_NEW&quot;&gt;\nhttp://unhidefreepic.com/?v=1fb42336ba.jpg&lt;/a&gt;\n\nscreens\n-------\n &lt;a href=&quot;\nhttp://unhidefreepic.com/?v=screenpgp.png&quot; rel=&quot;nofollow&quot; target=&quot;_NEW&quot;&gt;\nhttp://unhidefreepic.com/?v=screenpgp.png&lt;/a&gt;\n &lt;a href=&quot;\nhttp://unhidefreepic.com/?v=screenzkz.png&quot; rel=&quot;nofollow&quot; target=&quot;_NEW&quot;&gt;\nhttp://unhidefreepic.com/?v=screenzkz.png&lt;/a&gt;\n &lt;a href=&quot;\nhttp://unhidefreepic.com/?v=4230093t.jpg&quot; rel=&quot;nofollow&quot; target=&quot;_NEW&quot;&gt;\nhttp://unhidefreepic.com/?v=4230093t.jpg&lt;/a&gt;\n\n","torrent":{"xt":"urn:btih:f84a562af169158d6088ebcadb97450a013c3570","amp;dn":"Zio+Ti+Prego+Basta+%282010%29+%28THEMA+Film%2C+Oliver+Buzz%29","amp;tr":["udp%3A%2F%2Ftracker.openbittorrent.com%3A80","udp%3A%2F%2Fopen.demonii.com%3A1337","udp%3A%2F%2Ftracker.coppersurfer.tk%3A6969","udp%3A%2F%2Fexodus.desync.com%3A6969"],"infoHash":"f84a562af169158d6088ebcadb97450a013c3570","infoHashBuffer":{"type":"Buffer","data":[248,74,86,42,241,105,21,141,96,136,235,202,219,151,69,10,1,60,53,112]},"announce":[],"urlList":[]}}